<svg width="20" height="21" viewBox="0 0 20 21" fill="none" xmlns="http://www.w3.org/2000/svg">
<g clip-path="url(#clip0_1303_4)" filter="url(#filter0_i_1303_4)">
<path d="M10 19.25C7.67936 19.25 5.45376 18.3281 3.81282 16.6872C2.17187 15.0462 1.25 12.8206 1.25 10.5C1.25 8.17936 2.17187 5.95376 3.81282 4.31282C5.45376 2.67187 7.67936 1.75 10 1.75C12.3206 1.75 14.5462 2.67187 16.1872 4.31282C17.8281 5.95376 18.75 8.17936 18.75 10.5C18.75 12.8206 17.8281 15.0462 16.1872 16.6872C14.5462 18.3281 12.3206 19.25 10 19.25ZM10 20.5C12.6522 20.5 15.1957 19.4464 17.0711 17.5711C18.9464 15.6957 20 13.1522 20 10.5C20 7.84784 18.9464 5.3043 17.0711 3.42893C15.1957 1.55357 12.6522 0.5 10 0.5C7.34784 0.5 4.8043 1.55357 2.92893 3.42893C1.05357 5.3043 0 7.84784 0 10.5C0 13.1522 1.05357 15.6957 2.92893 17.5711C4.8043 19.4464 7.34784 20.5 10 20.5Z" fill="#FD0707"/>
<path d="M13.7126 6.71251C13.7037 6.72114 13.6953 6.73033 13.6876 6.74001L9.34631 12.2713L6.73006 9.65376C6.55234 9.48816 6.31728 9.39801 6.0744 9.4023C5.83153 9.40658 5.5998 9.50497 5.42803 9.67674C5.25626 9.8485 5.15787 10.0802 5.15359 10.3231C5.1493 10.566 5.23946 10.801 5.40506 10.9788L8.71256 14.2875C8.80166 14.3765 8.90776 14.4465 9.02454 14.4936C9.14131 14.5406 9.26637 14.5637 9.39224 14.5613C9.51811 14.559 9.64223 14.5313 9.75718 14.48C9.87213 14.4287 9.97556 14.3547 10.0613 14.2625L15.0513 8.02501C15.2212 7.84668 15.3141 7.60864 15.3099 7.36235C15.3057 7.11606 15.2048 6.88133 15.0289 6.70888C14.853 6.53644 14.6163 6.44015 14.37 6.44083C14.1237 6.44151 13.8875 6.5391 13.7126 6.71251Z" fill="#FD0707"/>
</g>
<defs>
<filter id="filter0_i_1303_4" x="0" y="0.5" width="20" height="24" filterUnits="userSpaceOnUse" color-interpolation-filters="sRGB">
<feFlood flood-opacity="0" result="BackgroundImageFix"/>
<feBlend mode="normal" in="SourceGraphic" in2="BackgroundImageFix" result="shape"/>
<feColorMatrix in="SourceAlpha" type="matrix" values="0 0 0 0 0 0 0 0 0 0 0 0 0 0 0 0 0 0 127 0" result="hardAlpha"/>
<feOffset dy="4"/>
<feGaussianBlur stdDeviation="2"/>
<feComposite in2="hardAlpha" operator="arithmetic" k2="-1" k3="1"/>
<feColorMatrix type="matrix" values="0 0 0 0 0.354167 0 0 0 0 0.354167 0 0 0 0 0.354167 0 0 0 1 0"/>
<feBlend mode="normal" in2="shape" result="effect1_innerShadow_1303_4"/>
</filter>
<clipPath id="clip0_1303_4">
<rect width="20" height="20" fill="white" transform="translate(0 0.5)"/>
</clipPath>
</defs>
</svg>
